<?xml version="1.0" encoding="UTF-8" standalone="no"?>
<!-- Generator: Adobe Illustrator 27.0.0, SVG Export Plug-In . SVG Version: 6.00 Build 0)  -->

<svg
   xmlns:dc="http://purl.org/dc/elements/1.1/"
   xmlns:cc="http://creativecommons.org/ns#"
   xmlns:rdf="http://www.w3.org/1999/02/22-rdf-syntax-ns#"
   xmlns:svg="http://www.w3.org/2000/svg"
   xmlns="http://www.w3.org/2000/svg"
   xmlns:sodipodi="http://sodipodi.sourceforge.net/DTD/sodipodi-0.dtd"
   xmlns:inkscape="http://www.inkscape.org/namespaces/inkscape"
   version="1.1"
   id="Layer_1"
   x="0px"
   y="0px"
   viewBox="0 0 1000 1047.8536"
   xml:space="preserve"
   sodipodi:docname="MIN23_Dark_Active.svg"
   width="1000"
   height="1047.8536"
   inkscape:version="0.92.4 (5da689c313, 2019-01-14)"><metadata
   id="metadata25"><rdf:RDF><cc:Work
       rdf:about=""><dc:format>image/svg+xml</dc:format><dc:type
         rdf:resource="http://purl.org/dc/dcmitype/StillImage" /><dc:title></dc:title></cc:Work></rdf:RDF></metadata><defs
   id="defs23">
	
	
	
	
	

		
		
	</defs><sodipodi:namedview
   pagecolor="#ffffff"
   bordercolor="#111111"
   borderopacity="1"
   objecttolerance="10"
   gridtolerance="10"
   guidetolerance="10"
   inkscape:pageopacity="0"
   inkscape:pageshadow="2"
   inkscape:window-width="1920"
   inkscape:window-height="1017"
   id="namedview21"
   showgrid="false"
   fit-margin-top="0"
   fit-margin-left="0"
   fit-margin-right="0"
   fit-margin-bottom="0"
   inkscape:zoom="0.39333333"
   inkscape:cx="1154.3397"
   inkscape:cy="536.36213"
   inkscape:window-x="1912"
   inkscape:window-y="-8"
   inkscape:window-maximized="1"
   inkscape:current-layer="Layer_1" />
<style
   type="text/css"
   id="style2">
	.st0{fill:#FFFFFF;}
	.st1{fill:#E31E34;}
</style>
<path
   style="fill:#031f40;fill-opacity:1;stroke-width:7.03729773"
   inkscape:connector-curvature="0"
   id="path4"
   d="m 548.90922,819.13399 -73.89163,56.30584 v 0 c -2.81492,58.40957 -16.18578,113.30049 -36.59394,172.41377 H 653.06122 C 632.65306,989.44405 619.2822,933.8494 616.46728,875.43983 v 0 z"
   class="st0"
   sodipodi:nodetypes="cccccccc" /><path
   style="fill:#e31e34;stroke-width:7.03729773"
   inkscape:connector-curvature="0"
   id="path6"
   d="m 615.76355,759.32442 v 0 l -67.55806,-34.91513 -71.78044,34.2114 v 0 c -71.78043,-9.85222 -130.19,-33.77903 -170.3026,-66.85433 -42.92752,-33.77903 -70.37298,-79.52147 -70.37298,-128.78255 0,-49.26108 27.44546,-95.00352 70.37298,-128.78255 40.81633,-32.37157 99.2259,-57.00211 171.00633,-66.85433 v 0 l 33.60463,-59.91905 -34.30836,-56.19636 C 339.90148,264.60239 239.26812,320.90077 142.15341,417.31175 101.33709,457.42434 55.594652,511.61154 0,562.98381 c 55.594652,51.37227 102.04082,104.85574 142.15341,145.67206 97.11471,97.11471 197.04434,152.70936 332.86418,166.78396 v 0 c 23.22309,2.81492 47.85363,3.51865 73.89163,3.51865 23.22308,0 45.0387,-1.40746 66.85433,-3.51865 v 0 C 819.14145,856.43912 961.29486,752.99085 1000,624.2083 L 846.58691,623.50457 C 809.28923,692.47009 727.65658,743.84236 615.76355,759.32442 Z"
   class="st1"
   sodipodi:nodetypes="ccccccsccccccccccsccccc" /><path
   style="fill:#e31e34;stroke-width:7.03729773"
   inkscape:connector-curvature="0"
   id="path8"
   d="m 615.76355,365.93948 v 0 C 727.65658,380.7178 809.28923,432.7938 846.58691,501.05559 L 1000,500.35186 C 961.29486,371.56931 818.43772,268.12104 615.05982,249.82406 v 0 l -31.85452,47.47691 z"
   class="st1"
   sodipodi:nodetypes="cccccccc" /><path
   style="fill:#031f40;fill-opacity:1;stroke-width:7.03729773"
   inkscape:connector-curvature="0"
   id="path16"
   d="m 476.42505,758.62069 v 0 c 22.51936,3.51864 46.44617,4.9261 71.78044,4.9261 23.22308,0 46.44616,-1.40746 67.55806,-4.22237 l 1.40746,-646.72766 c 130.19,7.0373 252.63898,48.55735 361.7171,121.04152 L 951.44265,60.52076 C 838.14215,19.70443 692.47009,0 546.79803,0 401.12597,0 254.75018,19.70443 141.44968,59.81703 L 114.00422,232.93455 C 223.08234,161.15411 344.82759,118.93033 475.72132,112.59676 Z"
   class="st0"
   sodipodi:nodetypes="ccsccccscccc" />
</svg>